<?xml version="1.0" encoding="UTF-8"?>
<svg xmlns="http://www.w3.org/2000/svg" viewBox="0 0 64 64">
  <!-- グラデーション定義 -->
  <defs>
    <linearGradient id="bodyGradient" x1="0%" y1="0%" x2="0%" y2="100%">
      <stop offset="0%" style="stop-color:rgb(255,0,0)"/>
      <stop offset="50%" style="stop-color:rgb(0,255,0)"/>
      <stop offset="100%" style="stop-color:rgb(0,0,255)"/>
    </linearGradient>
  </defs>

  <!-- Frame 1 -->
  <g id="frame1">
    <!-- 頭 -->
    <circle cx="32" cy="16" r="8" fill="url(#bodyGradient)"/>
    <!-- 胴体 -->
    <line x1="32" y1="24" x2="32" y2="40" stroke="url(#bodyGradient)" stroke-width="4" stroke-linecap="round"/>
    <!-- 左腕 -->
    <line x1="32" y1="28" x2="24" y2="36" stroke="url(#bodyGradient)" stroke-width="4" stroke-linecap="round"/>
    <!-- 右腕 -->
    <line x1="32" y1="28" x2="40" y2="36" stroke="url(#bodyGradient)" stroke-width="4" stroke-linecap="round"/>
    <!-- 左足 -->
    <line x1="32" y1="40" x2="24" y2="56" stroke="url(#bodyGradient)" stroke-width="4" stroke-linecap="round"/>
    <!-- 右足 -->
    <line x1="32" y1="40" x2="40" y2="56" stroke="url(#bodyGradient)" stroke-width="4" stroke-linecap="round"/>
  </g>

  <!-- Frame 2 -->
  <g id="frame2">
    <!-- 頭 -->
    <circle cx="32" cy="16" r="8" fill="url(#bodyGradient)"/>
    <!-- 胴体 -->
    <line x1="32" y1="24" x2="32" y2="40" stroke="url(#bodyGradient)" stroke-width="4" stroke-linecap="round"/>
    <!-- 左腕 -->
    <line x1="32" y1="28" x2="40" y2="36" stroke="url(#bodyGradient)" stroke-width="4" stroke-linecap="round"/>
    <!-- 右腕 -->
    <line x1="32" y1="28" x2="24" y2="36" stroke="url(#bodyGradient)" stroke-width="4" stroke-linecap="round"/>
    <!-- 左足 -->
    <line x1="32" y1="40" x2="40" y2="48" stroke="url(#bodyGradient)" stroke-width="4" stroke-linecap="round"/>
    <!-- 右足 -->
    <line x1="32" y1="40" x2="24" y2="48" stroke="url(#bodyGradient)" stroke-width="4" stroke-linecap="round"/>
  </g>

  <!-- Frame 3 -->
  <g id="frame3">
    <!-- 頭 -->
    <circle cx="32" cy="16" r="8" fill="url(#bodyGradient)"/>
    <!-- 胴体 -->
    <line x1="32" y1="24" x2="32" y2="40" stroke="url(#bodyGradient)" stroke-width="4" stroke-linecap="round"/>
    <!-- 左腕 -->
    <line x1="32" y1="28" x2="24" y2="36" stroke="url(#bodyGradient)" stroke-width="4" stroke-linecap="round"/>
    <!-- 右腕 -->
    <line x1="32" y1="28" x2="40" y2="36" stroke="url(#bodyGradient)" stroke-width="4" stroke-linecap="round"/>
    <!-- 左足 -->
    <line x1="32" y1="40" x2="24" y2="56" stroke="url(#bodyGradient)" stroke-width="4" stroke-linecap="round"/>
    <!-- 右足 -->
    <line x1="32" y1="40" x2="40" y2="56" stroke="url(#bodyGradient)" stroke-width="4" stroke-linecap="round"/>
  </g>
</svg>
